<svg width="1440" height="184" viewBox="0 0 1440 184" fill="none" xmlns="http://www.w3.org/2000/svg">
<path fill-rule="evenodd" clip-rule="evenodd" d="M0 112.882L60 135.712C120 158.542 240 204.202 360 173.762C480 143.322 600 36.7817 720 13.9516C840 -8.8785 960 52.0018 1080 90.0519C1200 128.102 1320 143.322 1380 150.932L1440 158.542V0.000252736L1364 0.000244141C1304 0.000244141 1215.5 0.000183105 1095.5 0.000183105C975.5 0.000183105 831.5 0.00012207 711.5 0.00012207C591.5 0.00012207 442 6.10352e-05 322 6.10352e-05C202 6.10352e-05 60 6.10352e-05 60 6.10352e-05L0 0V112.882Z" fill="#111212"/>
</svg>
