<svg width="1440" height="184" viewBox="0 0 1440 184" fill="none" xmlns="http://www.w3.org/2000/svg">
<path fill-rule="evenodd" clip-rule="evenodd" d="M1440 71.0167L1380 48.1866C1320 25.3565 1200 -20.3036 1080 10.1365C960 40.5767 840 147.117 720 169.947C600 192.777 480 131.897 360 93.8467C240 55.7966 120 40.5766 60 32.9666L0 25.3565V183.898L76 183.898C136 183.898 224.5 183.898 344.5 183.898C464.5 183.898 608.5 183.899 728.5 183.899C848.5 183.899 998 183.899 1118 183.899C1238 183.899 1380 183.899 1380 183.899L1440 183.899V71.0167Z" fill="#111212"/>
</svg>
