<svg width="800" height="800" viewBox="0 0 800 800" fill="none" xmlns="http://www.w3.org/2000/svg">
<path d="M193.75 259.83V540.17C165.089 546.343 139.725 562.899 122.539 586.652C105.354 610.406 97.5637 639.676 100.667 668.83C103.771 697.983 117.549 724.958 139.35 744.561C161.15 764.164 189.432 775.009 218.75 775.009C248.068 775.009 276.35 764.164 298.15 744.561C319.951 724.958 333.729 697.983 336.833 668.83C339.936 639.676 332.146 610.406 314.961 586.652C297.775 562.899 272.411 546.343 243.75 540.17V440.625H481.25C514.391 440.587 546.163 427.406 569.597 403.972C593.031 380.538 606.212 348.766 606.25 315.625V258.299C634.523 250.578 658.94 232.673 674.803 208.029C690.666 183.386 696.854 153.746 692.175 124.814C687.496 95.8821 672.281 69.7035 649.458 51.3166C626.636 32.9297 597.819 23.6342 568.554 25.219C539.289 26.8039 511.645 39.1572 490.941 59.9013C470.238 80.6453 457.939 108.314 456.412 137.582C454.885 166.85 464.237 195.648 482.669 218.434C501.101 241.221 527.309 256.384 556.25 261.006V315.625C556.227 335.509 548.318 354.573 534.258 368.633C520.198 382.693 501.134 390.602 481.25 390.625H243.75V259.83C272.411 253.658 297.775 237.101 314.961 213.348C332.146 189.595 339.936 160.324 336.833 131.171C333.729 102.017 319.951 75.0427 298.15 55.4397C276.35 35.8367 248.068 24.9912 218.75 24.9912C189.432 24.9912 161.15 35.8367 139.35 55.4397C117.549 75.0427 103.771 102.017 100.667 131.171C97.5637 160.324 105.354 189.595 122.539 213.348C139.725 237.101 165.089 253.658 193.75 259.83ZM506.25 143.75C506.25 130.153 510.282 116.861 517.837 105.555C525.391 94.2488 536.128 85.4369 548.691 80.2334C561.253 75.0299 575.076 73.6684 588.413 76.3211C601.749 78.9739 613.999 85.5217 623.614 95.1365C633.229 104.751 639.776 117.001 642.429 130.338C645.082 143.674 643.72 157.497 638.517 170.06C633.313 182.622 624.501 193.359 613.196 200.914C601.89 208.468 588.598 212.5 575 212.5C556.773 212.48 539.298 205.23 526.409 192.341C513.52 179.453 506.27 161.978 506.25 143.75ZM287.5 656.25C287.5 669.848 283.468 683.14 275.914 694.446C268.359 705.751 257.622 714.563 245.06 719.767C232.497 724.97 218.674 726.332 205.338 723.679C192.001 721.026 179.751 714.479 170.136 704.864C160.522 695.249 153.974 682.999 151.321 669.663C148.668 656.326 150.03 642.503 155.233 629.941C160.437 617.378 169.249 606.641 180.555 599.087C191.86 591.532 205.153 587.5 218.75 587.5C236.977 587.52 254.452 594.77 267.341 607.659C280.23 620.548 287.48 638.023 287.5 656.25ZM218.75 75.0001C232.347 75.0001 245.64 79.0322 256.945 86.5866C268.251 94.1409 277.063 104.878 282.267 117.441C287.47 130.003 288.832 143.826 286.179 157.163C283.526 170.499 276.978 182.749 267.364 192.364C257.749 201.979 245.499 208.526 232.162 211.179C218.826 213.832 205.003 212.47 192.441 207.267C179.878 202.063 169.141 193.251 161.586 181.946C154.032 170.64 150 157.348 150 143.75C150.02 125.523 157.27 108.048 170.159 95.1589C183.048 82.2702 200.523 75.0204 218.75 75.0001Z" fill="#7D8590"/>
</svg>
