<svg width="800" height="800" viewBox="0 0 800 800" fill="none" xmlns="http://www.w3.org/2000/svg">
<path fill-rule="evenodd" clip-rule="evenodd" d="M780.523 280.922C780.523 229.893 765.637 184.829 736.221 146.805C742.768 122.77 749.763 75.15 727.567 16.0954C725.235 9.81789 720.124 4.93039 713.756 2.73289C705.775 -0.00211385 662.863 -9.9117 576.86 48.9633C541.794 39.7262 504.801 34.9733 466.508 34.7491C428.349 34.9733 391.355 39.7262 356.38 48.9633C270.287 -9.8667 227.375 -0.00211385 219.349 2.7333C212.981 4.88539 207.87 9.81789 205.538 16.1404C183.387 75.15 190.382 122.77 196.973 146.805C167.513 184.964 152.582 229.983 152.582 280.921C152.582 457.099 245.042 513.059 332.66 533.282C313.289 554.492 292.977 585.431 288.627 624.756C258.718 635.607 181.28 657.31 153.165 606.416C151.909 604.085 122.584 549.066 63.5742 544.716C53.1263 545.21 28.3296 546.51 21.4692 567.36C13.7567 590.677 37.9255 608.075 49.7634 616.281C49.9875 616.416 72.9905 629.599 88.8638 671.3C89.2675 673.228 98.7734 719.1 145.093 746.946C181.548 768.917 229.393 773.401 287.282 760.397C287.282 770.172 287.147 780.486 287.103 786.808L286.968 799.767H331.808L331.898 787.346C332.705 720.041 332.75 718.741 319.074 711.656C313.872 708.966 307.819 708.338 302.259 710.132C245.491 727.216 199.35 726.812 168.904 708.966C139.534 691.657 133.077 663.587 131.866 659.103C130.252 654.665 128.503 650.494 126.754 646.503C179.665 707.217 281.812 678.654 319.791 660.583C327.638 656.906 332.615 649.015 332.615 640.36C332.615 578.122 394.405 538.618 395.033 538.215C403.104 533.148 407.095 523.552 405.032 514.315C402.97 505.033 395.302 498.037 385.84 496.917C292.663 485.752 197.422 451.359 197.422 280.922C197.422 236.62 211.413 198.012 238.989 166.265C244.37 159.987 245.939 151.244 242.98 143.531C238.9 132.949 227.779 96.5387 242.845 45.69C257.733 47.3941 289.031 55.8237 339.162 91.6512C344.722 95.642 351.852 96.8079 358.488 94.9245C392.029 85.1045 429.47 79.8133 466.508 79.5891C503.725 79.8133 541.122 85.1045 574.753 94.9245C581.389 96.8079 588.473 95.642 594.078 91.6512C644.568 55.555 675.912 47.3041 690.216 45.5554C705.417 96.4491 694.296 132.949 690.216 143.531C687.212 151.244 688.781 160.032 694.207 166.265C721.738 197.922 735.684 236.485 735.684 280.922C735.684 451.404 640.219 485.572 546.862 496.558C538.118 497.589 530.764 503.598 528.118 511.983C525.428 520.323 527.894 529.515 534.396 535.435C537.042 537.811 540.629 540.636 544.844 543.864C566.233 560.231 602.015 587.628 602.015 652.019C602.015 687.622 601.432 799.632 601.432 799.632L646.273 799.857C646.273 799.857 646.855 687.667 646.855 652.019C646.855 592.92 623.314 556.195 600.67 532.878C688.333 512.7 780.524 456.83 780.524 280.922" fill="#39A3EF"/>
</svg>
