<svg width="800" height="800" viewBox="0 0 800 800" fill="none" xmlns="http://www.w3.org/2000/svg">
<g clip-path="url(#clip0_1_18)">
<path d="M400.001 150C335.723 150 272.887 169.061 219.441 204.773C165.995 240.485 124.337 291.243 99.739 350.629C75.1405 410.015 68.7049 475.36 81.245 538.404C93.7855 601.445 124.739 659.36 170.191 704.81C215.643 750.26 273.554 781.215 336.598 793.755C399.641 806.295 464.986 799.86 524.372 775.26C583.76 750.665 634.515 709.005 670.23 655.56C705.94 602.115 725 539.279 725 475C725 388.805 690.76 306.14 629.81 245.191C568.86 184.241 486.197 150 400.001 150ZM400.001 750C345.612 750 292.441 733.875 247.218 703.655C201.994 673.44 166.75 630.485 145.936 580.237C125.122 529.987 119.676 474.695 130.287 421.35C140.898 368.006 167.09 319.008 205.549 280.548C244.009 242.089 293.007 215.897 346.352 205.286C399.696 194.675 454.989 200.121 505.238 220.935C555.49 241.749 598.44 276.994 628.655 322.217C658.875 367.441 675 420.61 675 475C675 547.935 646.025 617.88 594.455 669.45C542.88 721.025 472.936 750 400.001 750Z" fill="#7D8590"/>
<path d="M400 525C427.614 525 450 502.614 450 475C450 447.386 427.614 425 400 425C372.386 425 350 447.386 350 475C350 502.614 372.386 525 400 525Z" fill="#7D8590"/>
</g>
<defs>
<clipPath id="clip0_1_18">
<rect width="800" height="800" fill="white"/>
</clipPath>
</defs>
</svg>
