<svg width="800" height="800" viewBox="0 0 800 800" fill="none" xmlns="http://www.w3.org/2000/svg">
<path fill-rule="evenodd" clip-rule="evenodd" d="M365.833 483.667C369.084 480.417 371.662 476.558 373.421 472.311C375.18 468.065 376.086 463.513 376.086 458.917C376.086 454.32 375.18 449.769 373.421 445.522C371.662 441.275 369.084 437.417 365.833 434.167C356.702 425.036 349.458 414.195 344.517 402.265C339.575 390.334 337.031 377.547 337.031 364.633C337.031 351.72 339.575 338.933 344.517 327.002C349.458 315.071 356.702 304.231 365.833 295.1L483.7 177.267C492.831 168.135 503.672 160.892 515.602 155.95C527.533 151.009 540.32 148.465 553.233 148.465C566.147 148.465 578.934 151.009 590.865 155.95C602.795 160.892 613.635 168.135 622.767 177.267C631.898 186.398 639.141 197.238 644.083 209.169C649.025 221.099 651.568 233.886 651.568 246.8C651.568 259.714 649.025 272.501 644.083 284.431C639.141 296.362 631.898 307.202 622.767 316.333L586.333 352.733C583.083 355.984 580.505 359.842 578.746 364.089C576.987 368.335 576.082 372.887 576.082 377.483C576.082 382.08 576.987 386.631 578.746 390.878C580.505 395.125 583.083 398.983 586.333 402.233C592.897 408.797 601.8 412.485 611.083 412.485C615.68 412.485 620.231 411.58 624.478 409.821C628.725 408.062 632.583 405.484 635.833 402.233L672.267 365.833C703.836 334.264 721.572 291.446 721.572 246.8C721.572 202.154 703.836 159.336 672.267 127.767C640.697 96.1971 597.88 78.4615 553.233 78.4615C508.587 78.4615 465.77 96.1971 434.2 127.767L316.333 245.6C300.701 261.231 288.301 279.789 279.841 300.213C271.38 320.636 267.026 342.527 267.026 364.633C267.026 386.74 271.38 408.63 279.841 429.054C288.301 449.478 300.701 468.035 316.333 483.667C330 497.333 352.167 497.333 365.833 483.667ZM434.167 316.333C430.916 319.583 428.338 323.442 426.579 327.689C424.82 331.935 423.914 336.487 423.914 341.083C423.914 345.68 424.82 350.231 426.579 354.478C428.338 358.725 430.916 362.583 434.167 365.833C443.298 374.964 450.542 385.805 455.484 397.735C460.425 409.666 462.969 422.453 462.969 435.367C462.969 448.28 460.425 461.067 455.484 472.998C450.542 484.929 443.298 495.769 434.167 504.9L317.5 621.567C308.417 630.912 297.567 638.359 285.581 643.474C273.594 648.589 260.711 651.27 247.679 651.362C234.647 651.454 221.727 648.955 209.67 644.01C197.613 639.064 186.658 631.771 177.444 622.555C168.231 613.339 160.94 602.383 155.998 590.325C151.055 578.266 148.559 565.346 148.654 552.314C148.749 539.282 151.434 526.399 156.552 514.414C161.67 502.429 169.119 491.581 178.467 482.5L212.633 448.333C219.197 441.769 222.885 432.866 222.885 423.583C222.885 414.3 219.197 405.397 212.633 398.833C206.069 392.269 197.166 388.582 187.883 388.582C178.6 388.582 169.697 392.269 163.133 398.833L129 433C97.4304 464.57 79.6948 507.387 79.6948 552.033C79.6948 596.68 97.4304 639.497 129 671.067C160.57 702.636 203.387 720.372 248.033 720.372C292.68 720.372 335.497 702.636 367.067 671.067L483.733 554.4C499.366 538.769 511.766 520.211 520.226 499.787C528.686 479.364 533.041 457.473 533.041 435.367C533.041 413.26 528.686 391.37 520.226 370.946C511.766 350.522 499.366 331.965 483.733 316.333C480.483 313.083 476.625 310.504 472.378 308.745C468.131 306.986 463.58 306.081 458.983 306.081C454.387 306.081 449.835 306.986 445.589 308.745C441.342 310.504 437.483 313.083 434.233 316.333H434.167Z" fill="#39A3EF"/>
</svg>
