<svg width="800" height="800" viewBox="0 0 800 800" fill="none" xmlns="http://www.w3.org/2000/svg">
<path d="M533.333 115.592C582.723 140.137 616.667 191.105 616.667 250C616.667 308.895 582.723 359.863 533.333 384.407M600 558.88C650.383 581.677 695.75 618.833 733.333 666.667M66.6667 666.667C131.55 584.087 219.639 533.333 316.667 533.333C413.693 533.333 501.783 584.087 566.667 666.667M466.667 250C466.667 332.843 399.51 400 316.667 400C233.824 400 166.667 332.843 166.667 250C166.667 167.157 233.824 100 316.667 100C399.51 100 466.667 167.157 466.667 250Z" stroke="#7D8590" stroke-width="66.6667" stroke-linecap="round" stroke-linejoin="round"/>
</svg>
